<?xml version="1.0" encoding="UTF-8" standalone="no" ?>
<!DOCTYPE svg PUBLIC "-//W3C//DTD SVG 1.1//EN" "http://www.w3.org/Graphics/SVG/1.1/DTD/svg11.dtd">
<svg xmlns="http://www.w3.org/2000/svg" xmlns:xlink="http://www.w3.org/1999/xlink" version="1.1" width="1100" height="1100" viewBox="0 0 1100 1100" xml:space="preserve">
<desc>Created with Fabric.js 4.6.0</desc>
<defs>
</defs>
<g transform="matrix(1 0 0 1 553 556.5)" id="CXsi9adeQp-64GNV7-TtP"  >
<g style="" vector-effect="non-scaling-stroke"   >
		<g transform="matrix(1 0 0 1 -313 -271)" id="ePUHfEOlpYsDLFwTRDoHb"  >
<path style="stroke: rgb(3,138,138); stroke-width: 1; stroke-dasharray: none; stroke-linecap: butt; stroke-dashoffset: 0; stroke-linejoin: miter; stroke-miterlimit: 4; fill: rgb(3,138,138); fill-rule: nonzero; opacity: 1;" vector-effect="non-scaling-stroke"  transform=" translate(0, 0)" d="M -28 25.5 L -28 -25.5 L 28 25.5 z" stroke-linecap="round" />
</g>
		<g transform="matrix(1 0 0 1 -167 -227)" id="RTZ0RADXIxaV26BitTNn0"  >
<path style="stroke: rgb(138,3,3); stroke-width: 1; stroke-dasharray: none; stroke-linecap: butt; stroke-dashoffset: 0; stroke-linejoin: miter; stroke-miterlimit: 4; fill: rgb(138,3,3); fill-rule: nonzero; opacity: 1;" vector-effect="non-scaling-stroke"  transform=" translate(0, 0)" d="M -175 -160.5 L -7 -160.5 L 175 122.5 L 90 160.5 L 6 84.5 L 47 84.5 L 47 81.5 L -46 -18.5 L -111 -18.5 L -175 -76.5 z" stroke-linecap="round" />
</g>
		<g transform="matrix(1 0 0 1 30 -247)" id="gm_AL61aa_l83ODaYXh_p"  >
<path style="stroke: rgb(188,53,53); stroke-width: 1; stroke-dasharray: none; stroke-linecap: butt; stroke-dashoffset: 0; stroke-linejoin: miter; stroke-miterlimit: 4; fill: rgb(188,53,53); fill-rule: nonzero; opacity: 1;" vector-effect="non-scaling-stroke"  transform=" translate(0, 0)" d="M -198 -140.5 L -125 -140.5 L -31 -29.5 L -28 -29.5 L 66 -140.5 L 198 -140.5 L 80 96.5 L -17 140.5 z" stroke-linecap="round" />
</g>
		<g transform="matrix(1 0 0 1 338 -248)" id="1fSuxZNTQ9CGFApEjM9Jq"  >
<path style="stroke: rgb(187,10,30); stroke-width: 1; stroke-dasharray: none; stroke-linecap: butt; stroke-dashoffset: 0; stroke-linejoin: miter; stroke-miterlimit: 4; fill: rgb(187,10,30); fill-rule: nonzero; opacity: 1;" vector-effect="non-scaling-stroke"  transform=" translate(0, 0)" d="M 4 2.5 L 4 -2.5 L -4 2.5 z" stroke-linecap="round" />
</g>
		<g transform="matrix(1 0 0 1 229 -270.5)" id="mK5OXsdg04GH1nXoL3QiR"  >
<path style="stroke: rgb(3,138,138); stroke-width: 1; stroke-dasharray: none; stroke-linecap: butt; stroke-dashoffset: 0; stroke-linejoin: miter; stroke-miterlimit: 4; fill: rgb(3,138,138); fill-rule: nonzero; opacity: 1;" vector-effect="non-scaling-stroke"  transform=" translate(0, 0)" d="M 94 25 L 113 16 L 113 -117 L 4 -117 L -113 117 L -93 109 L -16 25 z" stroke-linecap="round" />
</g>
		<g transform="matrix(1 0 0 1 22.5 6)" id="aP91cYRtjLKsaGTlc1ls6"  >
<path style="stroke: rgb(187,10,30); stroke-width: 1; stroke-dasharray: none; stroke-linecap: butt; stroke-dashoffset: 0; stroke-linejoin: miter; stroke-miterlimit: 4; fill: rgb(187,10,30); fill-rule: nonzero; opacity: 1;" vector-effect="non-scaling-stroke"  transform=" translate(0, 0)" d="M -12.5 -9.5 L 3.5 9.5 L 12.5 -8.5 z" stroke-linecap="round" />
</g>
		<g transform="matrix(1 0 0 1 57.5 -18.5)" id="BQhBXJ2ouXJ5VXPagyEMi"  >
<path style="stroke: rgb(187,10,30); stroke-width: 1; stroke-dasharray: none; stroke-linecap: butt; stroke-dashoffset: 0; stroke-linejoin: miter; stroke-miterlimit: 4; fill: rgb(187,10,30); fill-rule: nonzero; opacity: 1;" vector-effect="non-scaling-stroke"  transform=" translate(0, 0)" d="M -14.5 12 L -2.5 -14 L 14.5 14 z" stroke-linecap="round" />
</g>
		<g transform="matrix(1 0 0 1 82 51)" id="1b5-T6ynMrGREKoxqKPt6"  >
<path style="stroke: rgb(0,86,86); stroke-width: 1; stroke-dasharray: none; stroke-linecap: butt; stroke-dashoffset: 0; stroke-linejoin: miter; stroke-miterlimit: 4; fill: rgb(0,86,86); fill-rule: nonzero; opacity: 1;" vector-effect="non-scaling-stroke"  transform=" translate(0, 0)" d="M -42 -52.5 L -52 -32.5 L -3 23.5 L 30 52.5 L 52 40.5 L -6 -50.5 z" stroke-linecap="round" />
</g>
		<g transform="matrix(1 0 0 1 -96 -35.5)" id="a_HQte8vJEow6z5zUjOMC"  >
<path style="stroke: rgb(187,10,30); stroke-width: 1; stroke-dasharray: none; stroke-linecap: butt; stroke-dashoffset: 0; stroke-linejoin: miter; stroke-miterlimit: 4; fill: rgb(187,10,30); fill-rule: nonzero; opacity: 1;" vector-effect="non-scaling-stroke"  transform=" translate(0, 0)" d="M 75 26 L 18 -26 L -75 16 L -75 17 z" stroke-linecap="round" />
</g>
		<g transform="matrix(1 0 0 1 60.5 -92)" id="aWj9XcZ7MenXeK_jiHhSp"  >
<path style="stroke: rgb(0,86,86); stroke-width: 1; stroke-dasharray: none; stroke-linecap: butt; stroke-dashoffset: 0; stroke-linejoin: miter; stroke-miterlimit: 4; fill: rgb(0,86,86); fill-rule: nonzero; opacity: 1;" vector-effect="non-scaling-stroke"  transform=" translate(0, 0)" d="M 45.5 -51.5 L -45.5 -10.5 L -6.5 51.5 z" stroke-linecap="round" />
</g>
		<g transform="matrix(1 0 0 1 -10.5 -53.5)" id="tmUM_Whho__6Tq5RuPmRa"  >
<path style="stroke: rgb(86,0,0); stroke-width: 1; stroke-dasharray: none; stroke-linecap: butt; stroke-dashoffset: 0; stroke-linejoin: miter; stroke-miterlimit: 4; fill: rgb(86,0,0); fill-rule: nonzero; opacity: 1;" vector-effect="non-scaling-stroke"  transform=" translate(0, 0)" d="M 21.5 -47 L 62.5 18 L 47.5 47 L 15.5 45 L 10.5 40 L 6.5 44 L -3.5 44 L -62.5 -9 z" stroke-linecap="round" />
</g>
		<g transform="matrix(1 0 0 1 -212 -81)" id="fGnl2xKQyr23H-VtHVjkv"  >
<path style="stroke: rgb(188,53,53); stroke-width: 1; stroke-dasharray: none; stroke-linecap: butt; stroke-dashoffset: 0; stroke-linejoin: miter; stroke-miterlimit: 4; fill: rgb(188,53,53); fill-rule: nonzero; opacity: 1;" vector-effect="non-scaling-stroke"  transform=" translate(0, 0)" d="M 130 16.5 L 42.57975999999999 -61.5 L -130 -61.5 L -130 52.5 L 32 61.5 z" stroke-linecap="round" />
</g>
		<g transform="matrix(1 0 0 1 -266 -11.5)" id="FfJBzAoq1zp-WJuXDdO6P"  >
<path style="stroke: rgb(86,0,0); stroke-width: 1; stroke-dasharray: none; stroke-linecap: butt; stroke-dashoffset: 0; stroke-linejoin: miter; stroke-miterlimit: 4; fill: rgb(86,0,0); fill-rule: nonzero; opacity: 1;" vector-effect="non-scaling-stroke"  transform=" translate(0, 0)" d="M -76 -12 L 76 -3 L 40 12 L 40 10 L -76 10 z" stroke-linecap="round" />
</g>
		<g transform="matrix(1 0 0 1 -154 123)" id="bxHeEFOI4NggElf9Lc_Ar"  >
<path style="stroke: rgb(3,138,138); stroke-width: 1; stroke-dasharray: none; stroke-linecap: butt; stroke-dashoffset: 0; stroke-linejoin: miter; stroke-miterlimit: 4; fill: rgb(3,138,138); fill-rule: nonzero; opacity: 1;" vector-effect="non-scaling-stroke"  transform=" translate(0, 0)" d="M -142 -40.5 L -6 137.5 L 83 87.5 L 120 13.5 L 120 12.5 L 21 12.5 L 21 11.5 L 142 -124.5 L 137 -128.5 L -28 -137.5 L -79 -114.5 z" stroke-linecap="round" />
</g>
		<g transform="matrix(1 0 0 1 -253 226.5)" id="ZMzDxLkxM6hbPW2M23KwW"  >
<path style="stroke: rgb(138,3,3); stroke-width: 1; stroke-dasharray: none; stroke-linecap: butt; stroke-dashoffset: 0; stroke-linejoin: miter; stroke-miterlimit: 4; fill: rgb(138,3,3); fill-rule: nonzero; opacity: 1;" vector-effect="non-scaling-stroke"  transform=" translate(0, 0)" d="M -89 139 L -89 -91 L -47 -139 L -45 -139 L 89 36 L 34 69 L 2 69 L 2 87 z" stroke-linecap="round" />
</g>
		<g transform="matrix(1 0 0 1 -296.5 353.5)" id="Ev6A-BoRo1kIiLKCAcqJ9"  >
<path style="stroke: rgb(188,53,53); stroke-width: 1; stroke-dasharray: none; stroke-linecap: butt; stroke-dashoffset: 0; stroke-linejoin: miter; stroke-miterlimit: 4; fill: rgb(188,53,53); fill-rule: nonzero; opacity: 1;" vector-effect="non-scaling-stroke"  transform=" translate(0, 0)" d="M -45.5 34 L 45.5 34 L 45.5 -34 L -45.5 18 z" stroke-linecap="round" />
</g>
		<g transform="matrix(1 0 0 1 -166 327)" id="dEREzMkwZ1n-I7z-qjGlE"  >
<path style="stroke: rgb(188,53,53); stroke-width: 1; stroke-dasharray: none; stroke-linecap: butt; stroke-dashoffset: 0; stroke-linejoin: miter; stroke-miterlimit: 4; fill: rgb(188,53,53); fill-rule: nonzero; opacity: 1;" vector-effect="non-scaling-stroke"  transform=" translate(0, 0)" d="M -43 -31.5 L 5 -60.5 L 43 -11.5 L 7 60.5 L -23 60.5 L -23 -31.5 z" stroke-linecap="round" />
</g>
		<g transform="matrix(1 0 0 1 -115.5 263.5)" id="P6ODa2ROulhtyNnTDpNWN"  >
<path style="stroke: rgb(0,86,86); stroke-width: 1; stroke-dasharray: none; stroke-linecap: butt; stroke-dashoffset: 0; stroke-linejoin: miter; stroke-miterlimit: 4; fill: rgb(0,86,86); fill-rule: nonzero; opacity: 1;" vector-effect="non-scaling-stroke"  transform=" translate(0, 0)" d="M -40.5 1 L 40.5 -46 L -5.5 46 z" stroke-linecap="round" />
</g>
		<g transform="matrix(1 0 0 1 -3 170)" id="5Rmy8fGR80NWjrIUzvkzW"  >
<path style="stroke: rgb(86,0,0); stroke-width: 1; stroke-dasharray: none; stroke-linecap: butt; stroke-dashoffset: 0; stroke-linejoin: miter; stroke-miterlimit: 4; fill: rgb(86,0,0); fill-rule: nonzero; opacity: 1;" vector-effect="non-scaling-stroke"  transform=" translate(0, 0)" d="M -60 34.5 L -26 -34.5 L 60 -34.5 z" stroke-linecap="round" />
</g>
		<g transform="matrix(1 0 0 1 103 248.5)" id="NuiBrBuUSE8fCwL4jmw1y"  >
<path style="stroke: rgb(138,3,3); stroke-width: 1; stroke-dasharray: none; stroke-linecap: butt; stroke-dashoffset: 0; stroke-linejoin: miter; stroke-miterlimit: 4; fill: rgb(138,3,3); fill-rule: nonzero; opacity: 1;" vector-effect="non-scaling-stroke"  transform=" translate(0, 0)" d="M -37 -113 L -169 -37 L -221 65 L -200 92 L -200 47 L -143 47 L -143 139 L -64 139 L -64 47 L -5 47 L -5 139 L 85 139 L 85 47 L 148 47 L 148 139 L 221 139 L 87 -70 L 9 -139 L 30 -113 z" stroke-linecap="round" />
</g>
		<g transform="matrix(1 0 0 1 149 130)" id="6Rot3kuf7xwHsVfHZGMuV"  >
<path style="stroke: rgb(187,10,30); stroke-width: 1; stroke-dasharray: none; stroke-linecap: butt; stroke-dashoffset: 0; stroke-linejoin: miter; stroke-miterlimit: 4; fill: rgb(187,10,30); fill-rule: nonzero; opacity: 1;" vector-effect="non-scaling-stroke"  transform=" translate(0, 0)" d="M -32 -22.5 L -12 -34.5 L 32 34.5 z" stroke-linecap="round" />
</g>
		<g transform="matrix(1 0 0 1 274.5 291.5)" id="c_No6YDiAgAXsWZ9hkVig"  >
<path style="stroke: rgb(3,138,138); stroke-width: 1; stroke-dasharray: none; stroke-linecap: butt; stroke-dashoffset: 0; stroke-linejoin: miter; stroke-miterlimit: 4; fill: rgb(3,138,138); fill-rule: nonzero; opacity: 1;" vector-effect="non-scaling-stroke"  transform=" translate(0, 0)" d="M -67.5 -96 L 67.5 24 L 67.5 96 L 55.5 96 z" stroke-linecap="round" />
</g>
		<g transform="matrix(1 0 0 1 241.5 169)" id="PTEwQotjyMN8GnVfP_mFY"  >
<path style="stroke: rgb(188,53,53); stroke-width: 1; stroke-dasharray: none; stroke-linecap: butt; stroke-dashoffset: 0; stroke-linejoin: miter; stroke-miterlimit: 4; fill: rgb(188,53,53); fill-rule: nonzero; opacity: 1;" vector-effect="non-scaling-stroke"  transform=" translate(0, 0)" d="M 100.5 139.5 L 99.5 139.5 L -45.5 10.5 L -100.5 -75.5 L 9.5 -139.5 L 100.5 -32.5 z" stroke-linecap="round" />
</g>
		<g transform="matrix(1 0 0 1 324 -12)" id="KYhqC9FhUWKVnJQ_R7x3I"  >
<path style="stroke: rgb(187,10,30); stroke-width: 1; stroke-dasharray: none; stroke-linecap: butt; stroke-dashoffset: 0; stroke-linejoin: miter; stroke-miterlimit: 4; fill: rgb(187,10,30); fill-rule: nonzero; opacity: 1;" vector-effect="non-scaling-stroke"  transform=" translate(0, 0)" d="M 18 10.5 L 18 -10.5 L -18 9.5 L -18 10.5 z" stroke-linecap="round" />
</g>
		<g transform="matrix(1 0 0 1 200 -74)" id="ih6O5Qu-YiQezKSagSS6m"  >
<path style="stroke: rgb(138,3,3); stroke-width: 1; stroke-dasharray: none; stroke-linecap: butt; stroke-dashoffset: 0; stroke-linejoin: miter; stroke-miterlimit: 4; fill: rgb(138,3,3); fill-rule: nonzero; opacity: 1;" vector-effect="non-scaling-stroke"  transform=" translate(0, 0)" d="M 96 72.5 L 142 45.5 L 142 -68.5 L -80 -68.5 L -80 -71.5 L -73 -78.5 L -88 -72.5 L -142 37.5 L -123 69.5 L 29 78.5 L 26 75.5 L 26 72.5 z" stroke-linecap="round" />
</g>
		<g transform="matrix(1 0 0 1 164.5 45)" id="-4z4PmTJ-Nanlb4a254E8"  >
<path style="stroke: rgb(86,0,0); stroke-width: 1; stroke-dasharray: none; stroke-linecap: butt; stroke-dashoffset: 0; stroke-linejoin: miter; stroke-miterlimit: 4; fill: rgb(86,0,0); fill-rule: nonzero; opacity: 1;" vector-effect="non-scaling-stroke"  transform=" translate(0, 0)" d="M -83.5 -44.5 L 69.5 -35.5 L 83.5 -18.5 L -26.5 44.5 z" stroke-linecap="round" />
</g>
		<g transform="matrix(1 0 0 1 -126 352.5)" id="psuR-Y9VmJigGdLsxEoCb"  >
<path style="stroke: rgb(3,138,138); stroke-width: 1; stroke-dasharray: none; stroke-linecap: butt; stroke-dashoffset: 0; stroke-linejoin: miter; stroke-miterlimit: 4; fill: rgb(3,138,138); fill-rule: nonzero; opacity: 1;" vector-effect="non-scaling-stroke"  transform=" translate(0, 0)" d="M 29 35 L 29 -4 L 6 -35 L -29 35 z" stroke-linecap="round" />
</g>
</g>
</g>
</svg>